<svg width="264" height="250" viewBox="0 0 264 250" fill="none" xmlns="http://www.w3.org/2000/svg">
<path d="M139 250C208.036 250 264 194.036 264 125C264 55.9644 208.036 0 139 0C130.615 0 122.423 0.825628 114.5 2.40003C171.805 13.7878 215 64.3495 215 125C215 185.65 171.805 236.212 114.5 247.6C122.423 249.174 130.615 250 139 250Z" fill="white"/>
<path d="M67.8982 101C58.1333 107.07 51 126.262 51 149C51 161.646 53.2064 173.195 56.8449 182H92.1551C95.7936 173.195 98 161.646 98 149C98 126.262 90.8667 107.07 81.1018 101H67.8982Z" fill="white"/>
<path d="M2.18688 237H146.813L91.8551 180H57.1449L2.18688 237Z" fill="white"/>
<path d="M0 102L40 19H109L149 102H0Z" fill="white"/>
</svg>
